<svg xmlns="http://www.w3.org/2000/svg" style="width:0; height:0; visibility:hidden;">
    <symbol id="icon_arrow" viewBox="-291 414.5 11.7 12.3">
       <path d="M-285.7,414.5h1v11.7h-1V414.5z"/> <path d="M-291,420.9l0.7-0.7l5.9,5.9l-0.7,0.7L-291,420.9z"/> <path d="M-280,420.2l0.7,0.7l-5.9,5.9l-0.7-0.7L-280,420.2z"/> 
    </symbol>
    <symbol id="icon_briefcase" viewBox="0 0 13.625 11.91">
        <path id="Forma_1" data-name="Forma 1" class="cls-1" d="M898.761,1273.13h-2.552v-1.28a0.85,0.85,0,0,0-.851-0.85h-5.1a0.85,0.85,0,0,0-.851.85v1.28h-2.552a0.85,0.85,0,0,0-.851.85v8.08a0.85,0.85,0,0,0,.851.85h11.91a0.85,0.85,0,0,0,.851-0.85v-8.08A0.85,0.85,0,0,0,898.761,1273.13Zm-8.082-.85h4.254v0.85h-4.254v-0.85Zm7.657,9.35h-11.06v-3.4h4.254v0.43h2.552v-0.43h4.254v3.4Zm0-4.68h-4.254v-0.42H891.53v0.42h-4.254v-2.55h11.06v2.55Z" transform="translate(-886 -1271)"/> 
    </symbol>
    <symbol id="icon_camera" viewBox="0 0 56.406 45.84">
        <path id="Forma_1" data-name="Forma 1" class="cls-1" d="M884.966,2580.95a11.46,11.46,0,1,0,11.459-11.47A11.457,11.457,0,0,0,884.966,2580.95Zm36.141-19.4H908.766c-0.881-3.52-1.763-7.05-5.289-7.05h-14.1c-3.526,0-4.407,3.53-5.289,7.05H871.743a3.54,3.54,0,0,0-3.526,3.53v31.73a3.54,3.54,0,0,0,3.526,3.53h49.364a3.539,3.539,0,0,0,3.526-3.53v-31.73A3.539,3.539,0,0,0,921.107,2561.55Zm-24.682,35.04a15.645,15.645,0,1,1,15.647-15.64A15.642,15.642,0,0,1,896.425,2596.59Zm24.682-24.46h-7.052v-3.53h7.052v3.53Z" transform="translate(-868.219 -2554.5)"/> 
    </symbol>
    <symbol id="icon_dribbble" viewBox="0 0 30 30">
        <path id="dribbble" class="cls-1" d="M1305.12,6139.37a15,15,0,1,0,15,15A15.005,15.005,0,0,0,1305.12,6139.37Zm0,27.66a12.655,12.655,0,1,1,12.66-12.66A12.654,12.654,0,0,1,1305.12,6167.03Zm0-20.16a7.5,7.5,0,1,0,7.5,7.5A7.509,7.509,0,0,0,1305.12,6146.87Zm4.6,3.89a5.843,5.843,0,0,1,1.25,3.34,11.593,11.593,0,0,0-2.39-.27h-0.01a10.023,10.023,0,0,0-1.69.15c-0.13-.32-0.26-0.62-0.4-0.91A9.079,9.079,0,0,0,1309.72,6150.76Zm-4.6-2.24a5.813,5.813,0,0,1,3.65,1.29,7.536,7.536,0,0,1-2.87,2.05,20.838,20.838,0,0,0-2.02-3.2A6.365,6.365,0,0,1,1305.12,6148.52Zm-2.58.61a17.853,17.853,0,0,1,2.09,3.19,17.124,17.124,0,0,1-4.62.64h-0.56A5.9,5.9,0,0,1,1302.54,6149.13Zm-3.27,5.24a0.249,0.249,0,0,1,.01-0.08c0.16,0.01.38,0.01,0.64,0.01h0a18.382,18.382,0,0,0,5.31-.76c0.11,0.25.22,0.51,0.33,0.77a9.288,9.288,0,0,0-3.29,1.95,9.617,9.617,0,0,0-1.61,1.88A5.775,5.775,0,0,1,1299.27,6154.37Zm5.85,5.86a5.747,5.747,0,0,1-3.47-1.16,8.609,8.609,0,0,1,1.36-1.67,8.024,8.024,0,0,1,3.04-1.84,30.219,30.219,0,0,1,1.15,4.28A5.739,5.739,0,0,1,1305.12,6160.23Zm3.32-1.04a30.242,30.242,0,0,0-1.08-3.93,7.691,7.691,0,0,1,1.2-.09h0.01a10.357,10.357,0,0,1,2.3.28A5.861,5.861,0,0,1,1308.44,6159.19Z" transform="translate(-1290.13 -6139.38)"/> 
    </symbol>
    <symbol id="icon_facebook" viewBox="0 0 31 31">
        <path id="facebook" class="cls-1" d="M1125.5,6139a15.5,15.5,0,1,0,15.5,15.5A15.5,15.5,0,0,0,1125.5,6139Zm0,28.58a13.08,13.08,0,1,1,13.08-13.08A13.085,13.085,0,0,1,1125.5,6167.58Zm3.68-15.45h-2.7v-1.97a0.833,0.833,0,0,1,.92-0.74h1.74v-2.66l-2-.01a3.056,3.056,0,0,0-3.34,3.25v2.13h-1.98v2.73h1.98v7.39h2.68v-7.39h2.28Z" transform="translate(-1110 -6139)"/> 
    </symbol>
    <symbol id="icon_google" viewBox="0 0 30.84 30.84">
        <path id="google" class="cls-1" d="M1215.42,6138.67a15.415,15.415,0,1,0,15.41,15.41A15.413,15.413,0,0,0,1215.42,6138.67Zm0,28.42a13.005,13.005,0,1,1,13-13.01A13,13,0,0,1,1215.42,6167.09Zm1.33-20.24a5.506,5.506,0,0,0,.75-0.48h-5.02c-1,0-3.79,1.14-3.79,3.8s2.89,3.24,3.94,3.2a1.22,1.22,0,0,0,.23,1.71c0.32,0.34.25,0.44-.12,0.44s-5.04.05-5.04,3.39,6.19,3.57,8.23,1.78a3.361,3.361,0,0,0,.02-5.4c-1.58-1.12-2.16-1.65-1.16-2.54s1.81-1.6,1.81-3.25a3.118,3.118,0,0,0-1.37-2.5A2.972,2.972,0,0,0,1216.75,6146.85Zm-0.78,11.89c0,1.44-1.22,2.14-3.3,2.14s-3.19-1.04-3.19-2.58,1.52-2.31,4.35-2.31C1214.6,6156.58,1215.97,6157.3,1215.97,6158.74Zm-3-6.03c-2.5,0-3.63-5.83-.69-5.83C1214.56,6146.79,1216.28,6152.71,1212.97,6152.71Zm8.27-4.41v-1.89h-0.98v1.89h-1.92v0.99h1.92v1.9h0.98v-1.9h1.89v-0.99h-1.89Z" transform="translate(-1200 -6138.66)"/> 
    </symbol>
    <symbol id="icon_linkedin" viewBox="0 0 30.5 30.5">
        <path id="linkedin" class="cls-1" d="M1260.25,6139a15.25,15.25,0,1,0,15.25,15.25A15.253,15.253,0,0,0,1260.25,6139Zm0,28.12a12.87,12.87,0,1,1,12.87-12.87A12.867,12.867,0,0,1,1260.25,6167.12Zm-7.62-5.25h2.86v-11.44h-2.86v11.44Zm11.44-11.44a5.229,5.229,0,0,0-3.81,1.91v-1.91h-2.86v11.44h2.86v-6.67a2.42,2.42,0,0,1,2.85-1.91c1.22,0.08,1.87,1.68,1.91,1.91v6.67l2.85,0.01v-7.92A3.566,3.566,0,0,0,1264.07,6150.43Zm-10.01-3.81a1.43,1.43,0,1,0,1.43,1.43A1.43,1.43,0,0,0,1254.06,6146.62Z" transform="translate(-1245 -6139)"/> 
    </symbol>
    <symbol id="icon_list-circle" viewBox="0 0 14 14">
        <path id="_" data-name="&#xF192;" class="cls-1" d="M873.333,1125.5a2.333,2.333,0,1,0-2.333,2.33A2.332,2.332,0,0,0,873.333,1125.5ZM871,1120.54a4.96,4.96,0,1,1-4.958,4.96A4.968,4.968,0,0,1,871,1120.54Zm7,4.96a7,7,0,0,0-7-7h0A7,7,0,1,0,878,1125.5Z" transform="translate(-864 -1118.5)"/> 
    </symbol>
    <symbol id="icon_megaphone" viewBox="0 0 47.19 54.16">
        <path id="Forma_1" data-name="Forma 1" class="cls-1" d="M1214.77,2587.02l-4.05-12a6.719,6.719,0,0,0-3.5-10.33l-4.06-12.01a1.968,1.968,0,0,0-1.88-1.61c-1.25,0-1.93,1.23-2.32,2.39-2.92,11.66-16.11,15.41-16.33,15.47a2.9,2.9,0,0,0-1.91,1.69,2.81,2.81,0,0,0,.1,2.14l4.06,11.99a2.808,2.808,0,0,0,2.75,2,3.29,3.29,0,0,0,1.06-.17,30.507,30.507,0,0,1,9.69-1.7c8.27,0,12.83,4.1,12.87,4.14l0.22,0.17a3.547,3.547,0,0,0,1.76.61,1.71,1.71,0,0,0,1.46-.75A2.15,2.15,0,0,0,1214.77,2587.02Zm-16.39-5.1a32.827,32.827,0,0,0-10.69,1.89l-4.08-12.07c1.41-.41,13.62-4.23,17.61-15.52l3.74,11.04,2.4,7.1,3.69,10.89A24.46,24.46,0,0,0,1198.38,2581.92Zm-15.13,9.8s0.79-2.55.4-3.73l-4.65-14.03a1.486,1.486,0,0,0-2.14-1.13l-5.76,1.95s-4.49,1.74-3,6.15l2.05,6.06s1.63,5.12,6.09,3.61c0,0,1.76-.52,2.55,2.31l3.7,10.96a1.53,1.53,0,0,0,2.08,1.26s5.43-.95,1.09-5.34C1186.92,2597.14,1183.25,2595.36,1183.25,2591.72Zm17.32-28.82a1.177,1.177,0,0,0-1.31,1.01c-0.6,4.71-7.58,6.68-7.65,6.7a1.177,1.177,0,0,0,.31,2.31,1.757,1.757,0,0,0,.31-0.04c0.35-.1,8.56-2.41,9.36-8.67A1.18,1.18,0,0,0,1200.57,2562.9Z" transform="translate(-1167.78 -2551.06)"/> 
    </symbol>
    <symbol id="icon_menu" viewBox="0 0 66.137 66.137">
       <g> <g> <path d="M33.068,66.136C14.834,66.136,0,51.302,0,33.069C0,14.835,14.834,0.001,33.068,0.001s33.069,14.834,33.069,33.068
			C66.137,51.302,51.302,66.136,33.068,66.136z M33.068,4.001C17.04,4.001,4,17.041,4,33.069s13.04,29.067,29.068,29.067
			s29.069-13.04,29.069-29.067S49.096,4.001,33.068,4.001z"/> <rect x="18.02" y="31.069" width="30.098" height="4"/> <rect x="18.02" y="20.428" width="30.098" height="4"/> <rect x="18.019" y="41.709" width="30.099" height="4"/> </g> </g>                
    </symbol>
    <symbol id="icon_plus" viewBox="0 0 40 40">
        <path id="Forma_1" data-name="Forma 1" class="cls-1" d="M603,4018.01a20.005,20.005,0,1,1,20-20.01A20.032,20.032,0,0,1,603,4018.01Zm0-38.66A18.65,18.65,0,1,0,621.65,3998,18.673,18.673,0,0,0,603,3979.35ZM594.578,3998h16.848m0,0.68H594.578a0.68,0.68,0,0,1,0-1.36h16.848A0.68,0.68,0,0,1,611.426,3998.68Zm-8.424-9.1v16.85m0,0.67a0.674,0.674,0,0,1-.678-0.67v-16.85a0.679,0.679,0,1,1,1.357,0v16.85A0.675,0.675,0,0,1,603,4007.1Z" transform="translate(-583 -3978)"/> 
    </symbol>
    <symbol id="icon_screen" viewBox="0 0 54 54">
        <path id="Forma_1" data-name="Forma 1" class="cls-1" d="M323.312,2603.12h-3.375a3.375,3.375,0,0,1-3.375-3.37v-5.06H306.437v5.06a3.374,3.374,0,0,1-3.375,3.37h-3.375a1.69,1.69,0,0,0,0,3.38h23.625A1.69,1.69,0,0,0,323.312,2603.12Zm12.235-50.62H287.453a3.066,3.066,0,0,0-2.953,3.16v32.49a3.066,3.066,0,0,0,2.953,3.16h48.094a3.066,3.066,0,0,0,2.953-3.16v-32.49A3.066,3.066,0,0,0,335.547,2552.5Zm-0.422,35.44h-47.25v-32.07h47.25v32.07Z" transform="translate(-284.5 -2552.5)"/> 
    </symbol>
    <symbol id="icon_smartphone" viewBox="0 0 33.688 54.25">
        <path id="Forma_1" data-name="Forma 1" class="cls-1" d="M608.872,2555.96a1.076,1.076,0,0,0-1.084-1.07H601.9a1.076,1.076,0,0,0-1.084,1.07v0.03a1.076,1.076,0,0,0,1.084,1.07h5.886a1.076,1.076,0,0,0,1.084-1.07v-0.03Zm8.42-3.96H592.4a4.367,4.367,0,0,0-4.394,4.34v45.57a4.373,4.373,0,0,0,4.394,4.34h24.895a4.373,4.373,0,0,0,4.394-4.34v-45.57A4.366,4.366,0,0,0,617.292,2552Zm-12.447,52.62a2.35,2.35,0,1,1,2.38-2.35A2.366,2.366,0,0,1,604.845,2604.62Zm13.179-7.05a0.725,0.725,0,0,1-.732.72H592.4a0.725,0.725,0,0,1-.732-0.72v-36.89a0.734,0.734,0,0,1,.732-0.73h24.895a0.734,0.734,0,0,1,.732.73v36.89Zm-15.559-7.96a0.907,0.907,0,0,0-.769,1.4l-1.5,1.91a0.918,0.918,0,0,0-.289-0.05,0.939,0.939,0,0,0-.548.18l-1.863-1.23a0.817,0.817,0,0,0,.032-0.22,0.916,0.916,0,0,0-1.831,0,0.88,0.88,0,0,0,.122.44l-1.429,1.62a0.959,0.959,0,0,0-.34-0.07,0.905,0.905,0,1,0,.916.9,0.88,0.88,0,0,0-.122-0.44l1.428-1.61a0.965,0.965,0,0,0,.341.07,0.947,0.947,0,0,0,.548-0.19l1.863,1.23a0.78,0.78,0,0,0-.032.22,0.916,0.916,0,0,0,1.831,0,0.894,0.894,0,0,0-.147-0.49l1.5-1.91a0.923,0.923,0,0,0,.289.05A0.905,0.905,0,1,0,602.465,2589.61Zm-4.21-14.83v-3.25a3.638,3.638,0,0,0-3.661,3.61h3.295A0.362,0.362,0,0,0,598.255,2574.78Zm3.612,0.97a3.625,3.625,0,0,0-2.88-4.15v3.54a0.733,0.733,0,0,1-.732.73h-3.587A3.671,3.671,0,0,0,601.867,2575.75Zm-5.077-10.73h2.2v4.34h-2.2v-4.34Zm-2.928,2.17h2.2v2.17h-2.2v-2.17Zm5.857-5.07h2.2v7.24h-2.2v-7.24Zm5.852,5.79H615.1a0.721,0.721,0,0,0,.725-0.72v-0.01a0.726,0.726,0,0,0-.725-0.72h-9.525a0.727,0.727,0,0,0-.726.72v0.01A0.721,0.721,0,0,0,605.571,2567.91Zm-7.091,20.29v-0.77a1.729,1.729,0,0,0,1.635-1.71c0-1.88-2.854-1.7-2.854-2.7a0.8,0.8,0,0,1,.905-0.71,2.2,2.2,0,0,1,1.33.52l0.474-.88a2.426,2.426,0,0,0-1.49-.61v-0.77h-0.729v0.79a1.743,1.743,0,0,0-1.592,1.68c0,1.8,2.862,1.7,2.862,2.7a0.762,0.762,0,0,1-.871.72,2.413,2.413,0,0,1-1.5-.63l-0.594.81a2.819,2.819,0,0,0,1.694.79v0.77h0.729Zm16.622-7.27h-9.526a0.721,0.721,0,0,0-.724.72v0.01a0.72,0.72,0,0,0,.724.72H615.1a0.721,0.721,0,0,0,.726-0.72v-0.01A0.721,0.721,0,0,0,615.1,2580.93Zm0-5.06h-9.526a0.719,0.719,0,0,0-.724.71v0.02a0.718,0.718,0,0,0,.724.71H615.1a0.719,0.719,0,0,0,.726-0.71v-0.02A0.719,0.719,0,0,0,615.1,2575.87Zm-9.531-11.58H615.1a0.719,0.719,0,0,0,.725-0.71v-0.02a0.718,0.718,0,0,0-.725-0.71h-9.525a0.719,0.719,0,0,0-.726.71v0.02A0.719,0.719,0,0,0,605.571,2564.29Zm9.531,28.94h-9.526a0.721,0.721,0,0,0-.724.72v0.01a0.727,0.727,0,0,0,.724.72H615.1a0.721,0.721,0,0,0,.726-0.72v-0.01A0.721,0.721,0,0,0,615.1,2593.23Zm0-3.62h-9.526a0.721,0.721,0,0,0-.724.72v0.01a0.72,0.72,0,0,0,.724.72H615.1a0.721,0.721,0,0,0,.726-0.72v-0.01A0.721,0.721,0,0,0,615.1,2589.61Zm0-5.06h-9.526a0.719,0.719,0,0,0-.724.71v0.02a0.718,0.718,0,0,0,.724.71H615.1a0.719,0.719,0,0,0,.726-0.71v-0.02A0.719,0.719,0,0,0,615.1,2584.55Zm0-12.3h-9.526a0.721,0.721,0,0,0-.724.72v0.01a0.72,0.72,0,0,0,.724.72H615.1a0.721,0.721,0,0,0,.726-0.72v-0.01A0.721,0.721,0,0,0,615.1,2572.25Z" transform="translate(-588 -2552)"/> 
    </symbol>
    <symbol id="icon_twitter" viewBox="0 0 31.5 31.5">
        <path id="twitter" class="cls-1" d="M1170.5,6138.5a15.75,15.75,0,1,0,15.75,15.75A15.748,15.748,0,0,0,1170.5,6138.5Zm0,29.04a13.29,13.29,0,1,1,13.29-13.29A13.29,13.29,0,0,1,1170.5,6167.54Zm7.87-18.52a5.566,5.566,0,0,1-1.8.55,3.764,3.764,0,0,0,1.36-1.9,5.107,5.107,0,0,1-2.03.77h0a3.126,3.126,0,0,0-2.35-1.08,3.387,3.387,0,0,0-3.25,3.5,3.967,3.967,0,0,0,.08.78h0a9.14,9.14,0,0,1-6.88-3.63,3.664,3.664,0,0,0,.99,4.62,2.009,2.009,0,0,1-1.42-.39,3.347,3.347,0,0,0,2.5,3.42,2.461,2.461,0,0,1-1.35.11,3.116,3.116,0,0,0,2.9,2.37,5.067,5.067,0,0,1-4.5,1.45,9.273,9.273,0,0,0,5.09,1.55c5.24,0,9.31-4.57,9.09-10.22v-0.11A5.8,5.8,0,0,0,1178.37,6149.02Z" transform="translate(-1154.75 -6138.5)"/> 
    </symbol></svg>